<svg id="Layer_2" data-name="Layer 2" xmlns="http://www.w3.org/2000/svg" xmlns:xlink="http://www.w3.org/1999/xlink" viewBox="0 0 383.12 381.82"><defs><style>.cls-1{fill:none;}.cls-2{clip-path:url(#clip-path);}.cls-3{fill:#ef1414;}.cls-4{fill:red;}.cls-5{fill:#cc2f2f;}</style><clipPath id="clip-path"><path class="cls-1" d="M368.3,189.8A24.35,24.35,0,0,1,322,200.73l-32.76.57a95.69,95.69,0,0,1-21,50L291.68,274a24.34,24.34,0,1,1-15.35,15l-23.39-22.63a95.62,95.62,0,0,1-49.07,20v33.76a24.34,24.34,0,1,1-21.45-.6V286.27A95.67,95.67,0,0,1,133.66,266L109.8,289.87a24.35,24.35,0,1,1-14.75-15.59l23.41-23.4a95.71,95.71,0,0,1-20.65-50l-34.11.6A24.35,24.35,0,1,1,63.92,180l34-.59a95.64,95.64,0,0,1,20.49-49L94.21,107.1a24.35,24.35,0,1,1,15.33-15l24.06,23.23a95.61,95.61,0,0,1,48-20.22V61.48a24.34,24.34,0,1,1,21.45.6V94.84a95.74,95.74,0,0,1,50.42,20.5l22.31-23.1a24.36,24.36,0,1,1,15,15.33L268.7,130.5a95.55,95.55,0,0,1,20.5,49.35l33-.58A24.35,24.35,0,0,1,368.3,189.8Z"/></clipPath></defs><title>covid-2</title><g class="cls-2"><polygon class="cls-3" points="8.48 371.62 416.92 5.39 8.48 5.39 8.48 371.62"/><path class="cls-4" d="M344.19-25.78c-12.68,42.15-46.64,134-134.41,213C96.32,289.37-32.73,303.28-74,306A426.4,426.4,0,0,0,57.83,382.66c148,53.11,281.45,6,324-11a422.53,422.53,0,0,0,33.11-163C415.05,93.4,367.14,9.35,344.19-25.78Z"/></g><rect class="cls-5" x="148.74" y="151.49" width="24.68" height="24.68" rx="12" ry="12"/><rect class="cls-5" x="208.65" y="151.49" width="24.68" height="24.68" rx="12" ry="12"/><rect class="cls-5" x="148.74" y="206.08" width="24.68" height="24.68" rx="12" ry="12"/><rect class="cls-5" x="208.65" y="206.08" width="24.68" height="24.68" rx="12" ry="12"/></svg>